<?xml version="1.0" encoding="utf-8"?>
<!-- Generator: Adobe Illustrator 25.2.1, SVG Export Plug-In . SVG Version: 6.00 Build 0)  -->
<svg version="1.1" id="Layer_1" xmlns="http://www.w3.org/2000/svg" xmlns:xlink="http://www.w3.org/1999/xlink" x="0px" y="0px"
	 viewBox="0 0 110.1 88.3" style="enable-background:new 0 0 110.1 88.3;" xml:space="preserve">
<style type="text/css">
	.st0{fill:#C15DBF;}
	.st1{fill:#FFFFFF;}
</style>
<path class="st0" d="M110,40.7c-0.4-5.8-2.4-11.3-5.9-15.9c-4.6-6.2-10.7-10.6-17.5-14.2c-6.3-3.3-12.9-5.8-19.7-7.4
	c-1.7-0.4-3.5-0.8-5.2-1.2l-0.2,0.4c0.5,0.3,0.9,0.7,1.3,1c13.1,8.6,16.7,26.2,8,39.2c-2.9,4.4-6.9,7.9-11.7,10.1
	c-3.5,1.7-7.2,2.6-11.1,2.6c-0.6,0-1.1-0.5-1.7-0.8c0.4-0.3,0.9-0.6,1.4-0.8c1.6-0.6,3.2-1,4.7-1.6c7.8-3.5,13.3-9.3,15.6-17.6
	c2.4-8.2,0.9-17.1-4-24.1c-3.2-5.1-8.4-8.7-14.4-9.8c-3.5-0.6-7.1-0.7-10.6-0.3c-5.4,0.6-10.7,2.2-15.5,4.9C15.3,10,9.5,17,5.5,25.6
	c-4,9-5.9,18.8-5.5,28.7C0.3,63.4,2,72.5,5,81.2c0.7,2.2,3.1,3.4,5.4,2.7c0.4-0.2,0.9-0.4,1.2-0.7c0.7-0.4,1-1.2,1-2
	c0.1-5.7,1.7-11.3,4.8-16.2c3.6-5.8,8.6-9.3,15.7-9.1c0.8,0,1.4,0.2,1.6,1.1c1.2,6,2.5,12,3.7,18c0.8,3.8,1.4,7.6,2,11.4
	c0.1,0.7,0.6,1.2,1.3,1.3c3.7,0.7,7.5,0.9,11.3,0.5c1.6-0.1,3.1-0.4,4.7-0.7c0.1-3.2,0.9-6.3,2.4-9.1c3.2-5.7,10.4-7.6,16.1-4.4
	c1.5,0.9,2.8,2.1,3.9,3.5c1.8,2.7,2.9,5.8,3.2,9c0,0.5,0.1,1,0.8,1.1c3.7,0.5,7.4,0.6,11.1,0.2c0.9-0.1,1.7-0.6,2.1-1.5
	c3.4-6.4,6.3-12.9,8.8-19.7C108.8,58.1,110.7,49.6,110,40.7z M22.7,29.9c-1.7,0-3.1-1.4-3.1-3.1c0-1.7,1.4-3.1,3.1-3.1
	c1.7,0,3.1,1.4,3.1,3.1c0,0,0,0,0,0C25.8,28.5,24.4,29.9,22.7,29.9C22.7,29.9,22.7,29.9,22.7,29.9z"/>
<circle class="st1" cx="23.7" cy="26.8" r="4.1"/>
</svg>
